<svg width="132" height="34" viewBox="0 0 132 34" fill="none" xmlns="http://www.w3.org/2000/svg">
<path d="M10.1872 9.81755C10.1872 7.23862 12.2855 5.14038 14.8644 5.14038C15.417 5.14038 15.8651 5.58853 15.8651 6.14112C15.8651 6.69373 15.417 7.14188 14.8644 7.14188C13.3889 7.14188 12.1887 8.34208 12.1887 9.81755C12.1887 10.3702 11.7406 10.8182 11.188 10.8182C10.6354 10.8182 10.1872 10.3702 10.1872 9.81755ZM22.0157 21.0457C21.4814 20.8379 20.8846 20.8627 20.3695 21.1144C18.7069 21.927 16.8396 22.3851 14.8644 22.3851C12.8891 22.3851 11.0219 21.927 9.35926 21.1144C8.8445 20.8628 8.24708 20.838 7.7131 21.0457C3.6383 22.6304 0.703344 25.7994 0.0187121 30.8154C-0.0614593 31.4029 0.118595 31.9969 0.50874 32.4434C0.898858 32.8898 1.46257 33.1464 2.05546 33.1464H27.6733C28.2667 33.1464 28.8314 32.8909 29.2218 32.4441C29.6122 31.9972 29.7903 31.4033 29.71 30.8154C29.0254 25.7994 26.0905 22.6304 22.0157 21.0457ZM5.04684 9.81755C5.04684 4.40415 9.45097 0 14.8644 0C20.2778 0 24.6819 4.40415 24.6819 9.81755C24.6819 11.28 24.3582 12.6675 23.7823 13.9156L29.2882 17.6599C30.0308 18.1649 30.2234 19.1762 29.7182 19.9189C29.4038 20.3815 28.8926 20.6305 28.3724 20.6305C28.0574 20.6305 27.7393 20.5394 27.4593 20.3489L21.9501 16.6024C20.1618 18.4692 17.6475 19.6352 14.8644 19.6352C9.45097 19.6352 5.04684 15.2311 5.04684 9.81755ZM8.04883 9.81755C8.04883 13.5757 11.1062 16.6332 14.8644 16.6332C18.6226 16.6332 21.6799 13.5757 21.6799 9.81755C21.6799 6.05935 18.6226 3.00198 14.8644 3.00198C11.1062 3.00198 8.04883 6.05935 8.04883 9.81755Z" fill="#396396"/>
<path d="M44.1378 23V9.90909H49.3026C50.2955 9.90909 51.1413 10.0987 51.8402 10.478C52.5391 10.853 53.0717 11.375 53.4382 12.044C53.8089 12.7088 53.9943 13.4759 53.9943 14.3452C53.9943 15.2145 53.8068 15.9815 53.4318 16.6463C53.0568 17.3111 52.5135 17.8288 51.8018 18.1996C51.0945 18.5703 50.2379 18.7557 49.2322 18.7557H45.9403V16.5376H48.7848C49.3175 16.5376 49.7564 16.446 50.1016 16.2628C50.451 16.0753 50.7109 15.8175 50.8814 15.4893C51.0561 15.157 51.1435 14.7756 51.1435 14.3452C51.1435 13.9105 51.0561 13.5312 50.8814 13.2074C50.7109 12.8793 50.451 12.6257 50.1016 12.4467C49.7521 12.2635 49.3089 12.1719 48.772 12.1719H46.9055V23H44.1378ZM55.7921 23V9.90909H64.6131V12.1911H58.5598V15.3104H64.1593V17.5923H58.5598V20.718H64.6387V23H55.7921ZM66.8136 23V9.90909H71.9783C72.9712 9.90909 73.8171 10.0987 74.516 10.478C75.2148 10.853 75.7475 11.375 76.114 12.044C76.4847 12.7088 76.6701 13.4759 76.6701 14.3452C76.6701 15.2145 76.4826 15.9815 76.1076 16.6463C75.7326 17.3111 75.1893 17.8288 74.4776 18.1996C73.7702 18.5703 72.9137 18.7557 71.908 18.7557H68.6161V16.5376H71.4606C71.9933 16.5376 72.4322 16.446 72.7773 16.2628C73.1268 16.0753 73.3867 15.8175 73.5572 15.4893C73.7319 15.157 73.8192 14.7756 73.8192 14.3452C73.8192 13.9105 73.7319 13.5312 73.5572 13.2074C73.3867 12.8793 73.1268 12.6257 72.7773 12.4467C72.4279 12.2635 71.9847 12.1719 71.4478 12.1719H69.5813V23H66.8136ZM90.0183 14.4922H87.2186C87.1674 14.13 87.063 13.8082 86.9054 13.527C86.7477 13.2415 86.5453 12.9986 86.2981 12.7983C86.051 12.598 85.7654 12.4446 85.4416 12.3381C85.122 12.2315 84.7747 12.1783 84.3997 12.1783C83.7221 12.1783 83.1319 12.3466 82.6291 12.6832C82.1262 13.0156 81.7363 13.5014 81.4593 14.1406C81.1824 14.7756 81.0439 15.5469 81.0439 16.4545C81.0439 17.3878 81.1824 18.1719 81.4593 18.8068C81.7406 19.4418 82.1326 19.9212 82.6355 20.245C83.1383 20.5689 83.72 20.7308 84.3805 20.7308C84.7512 20.7308 85.0943 20.6818 85.4096 20.5838C85.7292 20.4858 86.0126 20.343 86.2598 20.1555C86.5069 19.9638 86.7115 19.7315 86.8734 19.4588C87.0396 19.1861 87.1547 18.875 87.2186 18.5256L90.0183 18.5384C89.9458 19.1392 89.7647 19.7188 89.475 20.277C89.1895 20.831 88.8038 21.3274 88.318 21.7663C87.8365 22.201 87.2612 22.5462 86.5922 22.8018C85.9274 23.0533 85.1752 23.179 84.3358 23.179C83.1681 23.179 82.1241 22.9148 81.2037 22.3864C80.2875 21.858 79.563 21.093 79.0304 20.0916C78.502 19.0902 78.2377 17.8778 78.2377 16.4545C78.2377 15.027 78.5062 13.8125 79.0431 12.8111C79.5801 11.8097 80.3088 11.0469 81.2292 10.5227C82.1497 9.99432 83.1852 9.73011 84.3358 9.73011C85.0943 9.73011 85.7974 9.83665 86.4451 10.0497C87.0971 10.2628 87.6745 10.5739 88.1774 10.983C88.6802 11.3878 89.0893 11.8842 89.4047 12.4723C89.7243 13.0604 89.9288 13.7337 90.0183 14.4922ZM93.7544 17.0938V23H92.2459V9.90909H93.7544V14.7159H93.8823C94.1124 14.2088 94.4576 13.8061 94.9178 13.5078C95.3823 13.2053 96.0002 13.054 96.7715 13.054C97.4405 13.054 98.0265 13.1882 98.5293 13.4567C99.0321 13.7209 99.4221 14.1278 99.699 14.6776C99.9803 15.223 100.121 15.9176 100.121 16.7614V23H98.6124V16.8636C98.6124 16.0838 98.41 15.4808 98.0051 15.0547C97.6046 14.6243 97.0485 14.4091 96.3368 14.4091C95.8425 14.4091 95.3993 14.5135 95.0073 14.7223C94.6195 14.9311 94.3127 15.2358 94.0868 15.6364C93.8652 16.0369 93.7544 16.5227 93.7544 17.0938ZM106.997 23.2045C106.051 23.2045 105.235 22.9957 104.549 22.5781C103.867 22.1562 103.341 21.5682 102.97 20.8139C102.604 20.0554 102.42 19.1733 102.42 18.1676C102.42 17.1619 102.604 16.2756 102.97 15.5085C103.341 14.7372 103.857 14.1364 104.517 13.706C105.182 13.2713 105.957 13.054 106.844 13.054C107.355 13.054 107.86 13.1392 108.359 13.3097C108.857 13.4801 109.311 13.7571 109.72 14.1406C110.129 14.5199 110.455 15.0227 110.698 15.6491C110.941 16.2756 111.062 17.0469 111.062 17.9631V18.6023H103.494V17.2983H109.528C109.528 16.7443 109.418 16.25 109.196 15.8153C108.979 15.3807 108.668 15.0376 108.263 14.7862C107.862 14.5348 107.389 14.4091 106.844 14.4091C106.243 14.4091 105.723 14.5582 105.284 14.8565C104.849 15.1506 104.515 15.5341 104.281 16.0071C104.046 16.4801 103.929 16.9872 103.929 17.5284V18.3977C103.929 19.1392 104.057 19.7678 104.312 20.2834C104.572 20.7947 104.933 21.1847 105.393 21.4531C105.853 21.7173 106.388 21.8494 106.997 21.8494C107.393 21.8494 107.751 21.794 108.071 21.6832C108.395 21.5682 108.674 21.3977 108.908 21.1719C109.143 20.9418 109.324 20.6562 109.452 20.3153L110.909 20.7244C110.756 21.2188 110.498 21.6534 110.136 22.0284C109.773 22.3991 109.326 22.6889 108.793 22.8977C108.261 23.1023 107.662 23.2045 106.997 23.2045ZM117.346 23.2045C116.425 23.2045 115.633 22.9872 114.968 22.5526C114.303 22.1179 113.792 21.5192 113.434 20.7564C113.076 19.9936 112.897 19.1222 112.897 18.142C112.897 17.1449 113.08 16.2649 113.447 15.5021C113.817 14.7351 114.333 14.1364 114.994 13.706C115.658 13.2713 116.434 13.054 117.32 13.054C118.011 13.054 118.633 13.1818 119.187 13.4375C119.741 13.6932 120.195 14.0511 120.548 14.5114C120.902 14.9716 121.121 15.5085 121.207 16.1222H119.698C119.583 15.6747 119.327 15.2784 118.931 14.9332C118.539 14.5838 118.011 14.4091 117.346 14.4091C116.758 14.4091 116.242 14.5625 115.799 14.8693C115.36 15.1719 115.017 15.6001 114.77 16.1541C114.527 16.7038 114.406 17.3494 114.406 18.0909C114.406 18.8494 114.525 19.5099 114.763 20.0724C115.006 20.6349 115.347 21.0717 115.786 21.3828C116.229 21.6939 116.749 21.8494 117.346 21.8494C117.738 21.8494 118.094 21.7812 118.413 21.6449C118.733 21.5085 119.004 21.3125 119.225 21.0568C119.447 20.8011 119.604 20.4943 119.698 20.1364H121.207C121.121 20.7159 120.911 21.2379 120.574 21.7024C120.241 22.1626 119.8 22.5291 119.251 22.8018C118.705 23.0703 118.07 23.2045 117.346 23.2045ZM124.818 19.4205L124.793 17.554H125.099L129.395 13.1818H131.261L126.685 17.8097H126.557L124.818 19.4205ZM123.412 23V9.90909H124.92V23H123.412ZM129.651 23L125.815 18.142L126.889 17.0938L131.568 23H129.651Z" fill="#396396"/>
</svg>
